<?xml version="1.0" encoding="utf-8"?>
<!-- Generator: Adobe Illustrator 25.3.0, SVG Export Plug-In . SVG Version: 6.00 Build 0)  -->
<svg version="1.1" id="Слой_1" xmlns="http://www.w3.org/2000/svg" xmlns:xlink="http://www.w3.org/1999/xlink" x="0px" y="0px"
	 viewBox="0 0 311.81 62.36" style="enable-background:new 0 0 311.81 62.36;" xml:space="preserve">
<style type="text/css">
	.st0{display:none;fill:url(#SVGID_1_);}
	.st1{fill:#020203;}
	.st2{font-family:'Lufga-Bold';}
	.st3{font-size:48.0651px;}
	.st4{letter-spacing:-2;}
	.st5{fill:url(#SVGID_2_);}
</style>
<linearGradient id="SVGID_1_" gradientUnits="userSpaceOnUse" x1="0.2921" y1="25.8834" x2="70.8728" y2="25.8834">
	<stop  offset="1.120773e-03" style="stop-color:#00ACE8"/>
	<stop  offset="1" style="stop-color:#2C4697"/>
</linearGradient>
<path class="st0" d="M68.2,6.9c-2.66-1.07-3.04-2.31-4.86-2.51c-0.79-0.08-1.51,0.16-2.91,0.65c-2.85,0.99-3.34,1.75-6.56,3.24
	c-2.28,1.06-4.94,2.02-4.94,2.02c0,0-2.39-1.56-3.31-2.16c-3.31-2.18-4.96-3.27-6.14-4.21c-2.69-2.16-3.41-3.33-5.57-3.82
	c-0.63-0.14-1.08-0.16-2.39-0.16c-4.59,0.01-6.89,0.01-9.71,0.32c-3.13,0.35-2.31,0.49-6.56,1.05c-3.92,0.51-5.88,0.77-7.93,0.81
	c-3.17,0.06-4.86-0.26-5.1,0.4C2.01,3.19,3.37,4.47,4.51,5.12c1.12,0.64,2.04,0.69,2.02,0.89c-0.04,0.36-3.1,0.4-3.56,0.4
	C1.09,6.44,0.41,6.3,0.31,6.57C0.11,7.09,2.16,8.32,2.89,8.76c0.58,0.35,1.41,0.81,3.88,1.86c2.29,0.97,4.61,1.86,4.61,1.86
	s11.43,5.15,11.43,5.15c3.75,1.73,4.9,2.42,4.9,2.42c1.38,0.82,2.06,1.23,2.69,1.9c0.3,0.32,1.41,1.57,2.1,4.53
	c0.46,1.99,0.21,2.48,0.4,7.53c0.06,1.42,0.06,0.88,0.24,4.69c0.11,2.34,0.24,5.18,0.24,5.18c0,0,0.23,2.29,0.24,4.53
	c0.01,2.43-0.25,3.26,0.08,3.4c0.4,0.16,1.05-0.89,2.83-3.16c0.96-1.22,2.02-2.46,4.13-4.94c0,0,0.2-0.24,3.08-3.56
	c0.04-0.05,1.04-0.88,1.13-1.78c0.07-0.68-0.39-1.29-1.13-2.27c-0.63-0.83-0.94-0.97-0.89-1.29c0.07-0.45,0.71-0.51,2.12-1.19
	c1.47-0.71,2.79-1.63,2.79-1.63c5.33-3.67,5.92-4.01,5.92-4.01c1.75-0.99,3.01-1.51,6-3.28c1.02-0.61,1.78-1.09,2.27-2.02
	c0.49-0.95,0.52-2,0.57-3.72c0.02-0.86-0.03-0.92,0-2.1c0.04-1.3,0.1-1.08,0.16-2.51c0.06-1.47,0-1.82,0.32-2.27
	c0.24-0.32,1.08-1.19,0.81-0.89c0,0,2.04-1.06,4.21-1.94c2-0.81,2.84-0.95,2.83-1.29C70.86,7.57,69.81,7.55,68.2,6.9z M10.99,10.46
	C5.59,8.37,5.37,8,5.4,7.79c0.07-0.51,1.72-0.91,3.16-0.57c1.22,0.29,1.63,0.96,3.32,2.27c2.32,1.8,3.97,2.41,3.88,2.59
	C15.67,12.27,13.77,11.54,10.99,10.46z M32.11,21.14c-0.95,0.55-2.42-1.01-9.2-6.07c-2.5-1.87-3.75-2.8-4.88-3.56
	c-6.95-4.65-8.5-5.58-8.5-5.58c-1.65-1-2.52-1.47-2.43-1.94c0.12-0.59,1.7-0.66,6.55-1c3.29-0.23,5.48-0.39,7.93-0.61
	c1.86-0.17,3.73-0.25,5.58-0.49c3.2-0.42,3.79-0.74,4.45-0.24c0.89,0.66,0.65,1.85,0.74,7.62c0.03,1.62,0.02-0.2,0.09,3.87
	C32.59,20.41,32.52,20.9,32.11,21.14z M33.81,10.38c-0.1-2.09-0.27-2.98-0.32-5.5c-0.05-2.57,0.1-2.86,0.32-2.99
	c0.82-0.47,2.32,1.39,5.83,4.05c0.53,0.4,2.42,1.64,6.19,4.11c2.11,1.38,4.21,2.78,6.32,4.15c4.3,2.79,5.57,3.55,5.4,4.06
	c-0.15,0.46-1.34,0.25-5.04,0.31c-2.16,0.04-3.78,0.14-6.56,0.32c-3.56,0.23-5.89,0.4-5.89,0.4c-3.67,0.26-4.72,0.36-5.44-0.4
	c-0.29-0.31-0.47-0.69-0.65-3.56C33.82,12.85,33.9,12.31,33.81,10.38z M43.28,38.78c-0.18,0.99-0.78,0.83-2.77,3.25
	c-1.05,1.27-1.24,1.75-2.81,3.71c-1.76,2.19-2.03,2.22-2.19,2.18c-0.71-0.17-0.67-2.27-0.75-6.64c0,0-0.08-4.12-0.26-9.62
	c-0.19-5.5-0.49-7.73,0.04-7.86c0.47-0.11,0.97,1.56,3.32,5.42c1.12,1.84,2.8,4.42,2.88,4.55C42.89,37.09,43.47,37.74,43.28,38.78z
	 M47.24,28.67c-3.16,3.09-3.96,4.56-5.1,4.29c-0.39-0.09-0.64-0.35-2.67-3.99c-1.46-2.61-1.36-2.53-1.8-3.24
	c-1.93-3.08-3.24-3.69-2.97-4.42c0.33-0.86,2.36-0.51,7.2-0.65c1.45-0.04,3.53-0.19,7.69-0.49c5.81-0.41,7.75-0.73,7.93-0.16
	c0.16,0.5-1.23,1.1-4.05,3.24C50.38,25.59,47.86,28.07,47.24,28.67z M60.6,22.11c-0.73,1.72-2.48,1.95-5.99,3.72
	c-2.9,1.47-4.3,2.63-4.41,2.47c-0.12-0.17,1.67-1.47,5.3-4.66c3.2-2.82,4.5-4.17,5.1-3.8C61.04,20.12,60.95,21.27,60.6,22.11z
	 M61.57,11.51c-0.49,4.51-0.17,5.9-0.97,6.23c-0.84,0.35-1.6-1.04-4.77-3.24c-2.98-2.06-4.4-2.29-4.37-3.16
	c0.03-0.89,1.57-1.07,5.58-3.08c3.13-1.56,4.05-2.38,4.69-1.94C62.37,6.77,61.95,7.92,61.57,11.51z M65.29,8.68
	c-1.28,0.41-1.85,0.81-2.1,0.57C63,9.06,63.21,8.76,63.27,7.95c0.09-1.26-0.34-1.84-0.08-2.02c0.28-0.2,0.83,0.45,2.19,1.13
	c1.29,0.65,2.12,0.72,2.1,0.97C67.46,8.27,66.71,8.23,65.29,8.68z"/>
<text transform="matrix(1 0 0 1 58.7349 52.7012)" class="st1 st2 st3 st4">ebs design</text>
<linearGradient id="SVGID_2_" gradientUnits="userSpaceOnUse" x1="0" y1="26.3506" x2="71.4882" y2="26.3506">
	<stop  offset="1.120773e-03" style="stop-color:#00ACE8"/>
	<stop  offset="1" style="stop-color:#2C4697"/>
</linearGradient>
<path class="st5" d="M63.44,4.39l-1.34,0.12l-13.3,5.73L33.55,0L1.95,3.17l4.51,3.29L0,7.32l8.5,3.84l14.44,6.53l9.52,6.71l1.1,28.3
	l11.59-13.91l-1.95-3.66L62.22,23.3l1.22-11.41l8.05-3.23L63.44,4.39z M5.73,8.05h3.05l8.42,5.25L5.73,8.05z M5.73,3.9l26.23-2.44
	l0.49,20.86L5.73,3.9z M33.55,2.2l24.28,16.23l-23.67,1.71L33.55,2.2z M35.01,48.55l-0.49-24.64l8.66,14.52L35.01,48.55z
	 M41.97,33.43l-7.44-11.71l23.3-1.59L41.97,33.43z M60.39,22.32L48.8,30.25l11.59-10.13V22.32z M60.87,18.3l-10.13-6.4l10.74-5.43
	L60.87,18.3z M63.44,6.47l4.27,1.83l-4.27,1.34V6.47z"/>
</svg>
